<?xml version="1.0" standalone="no"?>
<!DOCTYPE svg PUBLIC "-//W3C//DTD SVG 20010904//EN"
 "http://www.w3.org/TR/2001/REC-SVG-20010904/DTD/svg10.dtd">
<svg version="1.0" xmlns="http://www.w3.org/2000/svg"
 width="480.000000pt" height="480.000000pt" viewBox="0 0 480.000000 480.000000"
 preserveAspectRatio="xMidYMid meet">

<g transform="translate(0.000000,480.000000) scale(0.100000,-0.100000)"
fill="#000000" stroke="none">
<path d="M2341 3886 l-42 -64 20 -41 c19 -36 21 -58 21 -231 l0 -190 -332 2
-332 3 -44 140 c-23 77 -46 143 -50 146 -16 15 -113 37 -109 26 2 -7 34 -103
71 -214 l68 -203 772 0 772 0 67 209 c37 115 67 212 67 214 0 9 -93 -24 -107
-37 -9 -9 -50 -132 -89 -269 -5 -16 -28 -17 -337 -15 l-332 3 -3 177 c-2 173
-2 179 23 227 l25 50 -41 66 c-23 36 -42 65 -44 65 -1 0 -21 -29 -44 -64z"/>
<path d="M1932 3574 c-27 -18 -29 -55 -4 -77 24 -22 55 -21 75 1 22 25 21 48
-3 72 -24 24 -38 25 -68 4z"/>
<path d="M2767 3572 c-21 -23 -22 -56 -1 -76 39 -40 105 4 85 56 -15 40 -57
50 -84 20z"/>
<path d="M1860 3000 c0 -103 1 -110 20 -110 16 0 20 7 20 35 0 27 4 35 18 35
10 0 33 -16 52 -35 20 -21 44 -35 58 -35 l24 0 -30 38 -30 37 21 16 c15 11 21
27 21 54 0 55 -29 75 -110 75 l-64 0 0 -110z m131 54 c21 -25 -1 -49 -50 -52
-41 -3 -41 -3 -41 32 0 35 1 36 39 36 23 0 44 -6 52 -16z"/>
<path d="M2763 3094 c-75 -37 -73 -168 3 -202 55 -25 114 -9 144 40 37 62 16
138 -45 164 -43 18 -62 17 -102 -2z m106 -50 c12 -15 21 -37 21 -49 0 -37 -37
-75 -72 -75 -46 0 -68 25 -68 76 0 33 5 46 22 58 34 24 73 20 97 -10z"/>
<path d="M2145 3004 c-25 -54 -45 -103 -45 -110 0 -24 30 -15 42 11 10 22 17
25 65 25 47 0 55 -3 65 -25 6 -14 20 -25 31 -25 22 0 24 -6 -35 127 -54 123
-64 123 -123 -3z m83 -4 c11 -29 10 -30 -19 -30 -32 0 -35 7 -18 44 14 30 23
27 37 -14z"/>
<path d="M2370 2989 l0 -112 60 6 c99 9 137 49 126 132 -8 61 -41 85 -122 85
l-64 0 0 -111z m125 56 c14 -13 25 -36 25 -50 0 -36 -42 -75 -80 -75 l-30 0 0
75 0 75 30 0 c19 0 40 -9 55 -25z"/>
<path d="M2612 2993 c3 -93 5 -108 21 -111 15 -3 17 7 17 107 0 105 -1 111
-20 111 -20 0 -21 -5 -18 -107z"/>
<path d="M460 2195 l0 -865 1920 0 1920 0 0 865 0 865 -640 0 -640 0 0 -55 0
-55 590 0 590 0 0 -755 0 -755 -1820 0 -1820 0 0 755 0 755 590 0 590 0 0 55
0 55 -640 0 -640 0 0 -865z"/>
<path d="M2381 2644 c-95 -20 -168 -60 -237 -129 -100 -99 -144 -212 -144
-370 0 -234 111 -401 316 -477 49 -18 81 -21 194 -22 118 0 142 2 191 22 72
29 179 97 179 115 0 7 -26 39 -58 70 l-58 58 -27 -21 c-14 -11 -52 -33 -84
-47 -47 -22 -73 -27 -138 -28 -143 0 -243 56 -303 170 -25 45 -27 60 -27 160
0 100 2 115 27 161 38 72 117 140 186 160 108 32 231 12 334 -54 l28 -17 57
58 58 58 -34 29 c-119 101 -293 141 -460 104z"/>
<path d="M3473 2635 c-149 -33 -228 -112 -248 -247 l-7 -48 71 0 c69 0 71 1
71 25 0 33 21 74 52 101 42 38 87 49 198 49 97 0 109 -2 157 -29 65 -36 99
-95 88 -154 -10 -55 -28 -77 -90 -107 -45 -22 -76 -29 -172 -36 -64 -5 -140
-15 -169 -24 -78 -23 -144 -72 -174 -130 -23 -46 -25 -61 -28 -212 l-3 -163
386 0 386 0 -3 68 -3 67 -317 3 -318 2 0 60 c0 103 37 158 123 181 23 6 93 15
157 19 178 13 279 62 333 164 33 62 32 193 -4 261 -31 61 -99 115 -177 140
-75 24 -228 29 -309 10z"/>
<path d="M800 2150 l0 -490 90 0 90 0 0 350 c0 193 3 350 8 350 4 -1 39 -44
78 -98 39 -53 108 -148 153 -209 46 -62 89 -113 97 -113 8 0 85 95 171 210
l158 210 3 -350 2 -350 95 0 95 0 0 490 0 490 -107 0 -108 -1 -145 -200 c-79
-110 -149 -204 -155 -208 -6 -6 -57 57 -140 172 -191 265 -158 237 -281 237
l-104 0 0 -490z"/>
</g>
</svg>
